<?xml version="1.0" encoding="UTF-8"?>
<svg width="752pt" height="752pt" version="1.1" viewBox="0 0 752 752" xmlns="http://www.w3.org/2000/svg">
 <path d="m562.12 496.77c6.6289-8.0508 18.469-8.9961 26.52-2.3672 8.0508 7.1055 8.9961 18.941 1.8945 26.992-85.719 99.926-129.29 10.891-155.81-72.457-120.29 194.64-285.57 92.82-277.52-82.402 7.5781-163.86 197.96-297.88 287.46-15.629 22.258-47.832 41.676-97.086 62.039-145.86 4.2617-9.4727 15.156-14.207 24.625-10.418 9.9453 4.2617 14.207 15.156 10.418 25.102-25.574 61.566-50.199 124.55-81.457 183.75 17.523 58.25 35.047 170.96 101.82 93.297zm-142.07-96.609c-78.613-262.36-218.32-185.64-225.43-32.203-7.1055 159.6 125.02 216.9 225.43 32.203z"/>
</svg>
